<?xml version="1.0" encoding="utf-8"?>
<!-- Generator: Adobe Illustrator 25.0.0, SVG Export Plug-In . SVG Version: 6.00 Build 0)  -->
<svg version="1.1" id="Camada_1" xmlns="http://www.w3.org/2000/svg" xmlns:xlink="http://www.w3.org/1999/xlink" x="0px" y="0px"
	 viewBox="0 0 118 28" style="enable-background:new 0 0 118 28;" xml:space="preserve">
<style type="text/css">
	.st0{clip-path:url(#SVGID_2_);}
	.st1{fill:#FFFFFF;}
	.st2{font-family:'NeueHaasUnica-ExtraBold';}
	.st3{font-size:19.8768px;}
	.st4{letter-spacing:-1;}
	.st5{font-family:'NeueHaasUnica-Regular';}
	.st6{clip-path:url(#SVGID_4_);fill:url(#SVGID_5_);}
</style>
<g>
	<defs>
		<rect id="SVGID_1_" x="1" y="1.6" width="116" height="22.8"/>
	</defs>
	<clipPath id="SVGID_2_">
		<use xlink:href="#SVGID_1_"  style="overflow:visible;"/>
	</clipPath>
	<g class="st0">
		<text transform="matrix(1 0 0 1 41.1699 18.6152)"><tspan x="0" y="0" class="st1 st2 st3 st4">W</tspan><tspan x="18.27" y="0" class="st1 st2 st3">e</tspan><tspan x="29.1" y="0" class="st1 st2 st3">s</tspan><tspan x="39.06" y="0" class="st1 st2 st3">t</tspan></text>
	</g>
	<g class="st0">
		<text transform="matrix(1 0 0 1 86.8867 18.6152)"><tspan x="0" y="0" class="st1 st5 st3 st4">P</tspan><tspan x="11.23" y="0" class="st1 st5 st3 st4">a</tspan><tspan x="20.65" y="0" class="st1 st5 st3">y</tspan></text>
	</g>
</g>
<g>
	<defs>
		<path id="SVGID_3_" d="M20.02,5.24c-0.72,0.03-1.44,0.17-2.12,0.42c-0.49,0.17-0.97,0.38-1.4,0.67c-0.73,0.45-1.38,1.06-1.78,1.82
			c-0.79,1.45-1.57,2.9-2.36,4.35c-0.48,0.85-0.91,1.72-1.4,2.56c-0.23,0.45-0.48,0.89-0.73,1.34c-0.19,0.4-0.42,0.78-0.63,1.16
			c-0.39,0.74-0.8,1.47-1.2,2.2c-0.26,0.47,0.04,1.05,0.57,1.1l0.01,0c1.7-0.03,3.43-0.55,4.73-1.67c0.3-0.3,0.62-0.59,0.84-0.96
			c0.66-1.16,1.28-2.35,1.93-3.52c0.25-0.52,0.56-1,0.81-1.51c0.77-1.4,1.52-2.81,2.29-4.21c0.51-0.9,0.97-1.83,1.49-2.73
			c0.03-0.07,0.07-0.14,0.11-0.21c0.19-0.35-0.05-0.79-0.45-0.81c0,0-0.01,0-0.01,0c-0.13-0.02-0.26-0.03-0.39-0.03
			C20.23,5.21,20.13,5.22,20.02,5.24 M26.49,5.24c-0.72,0.03-1.44,0.17-2.12,0.42c-0.49,0.17-0.97,0.38-1.4,0.67
			c-0.73,0.45-1.38,1.06-1.78,1.82c-0.79,1.45-1.57,2.9-2.36,4.35c-0.48,0.85-0.91,1.72-1.4,2.56c-0.23,0.45-0.48,0.89-0.73,1.34
			c-0.19,0.4-0.42,0.78-0.63,1.16c-0.39,0.74-0.8,1.47-1.2,2.2c-0.26,0.47,0.04,1.05,0.57,1.1l0.01,0c1.7-0.03,3.43-0.55,4.73-1.67
			c0.3-0.3,0.62-0.59,0.84-0.96c0.66-1.16,1.28-2.35,1.93-3.52c0.25-0.52,0.56-1,0.81-1.51c0.77-1.4,1.52-2.81,2.29-4.21
			c0.51-0.9,0.97-1.83,1.49-2.73c0.03-0.07,0.07-0.14,0.11-0.21c0.19-0.35-0.05-0.79-0.45-0.81c0,0-0.01,0-0.01,0
			c-0.13-0.02-0.26-0.03-0.39-0.03C26.71,5.21,26.6,5.22,26.49,5.24 M11.85,5.19c-0.09,0-0.17,0-0.26,0c-2.75,0-5.5,0-8.25,0
			c-0.06,0-0.12,0-0.18,0c-0.18,0-0.36,0-0.54,0.02c-0.53,0.07-0.99,0.4-1.3,0.82c-0.24,0.4-0.39,0.88-0.29,1.34
			C1.1,7.85,1.41,8.23,1.62,8.64c0.24,0.34,0.4,0.72,0.62,1.07c0.23,0.4,0.47,0.8,0.7,1.21c0.39,0.61,0.71,1.26,1.08,1.88
			c0.63,1.08,1.25,2.17,1.88,3.25c0.13,0.23,0.28,0.44,0.49,0.61c0.44,0.33,1.02,0.47,1.56,0.36c0.46-0.13,0.9-0.38,1.17-0.79
			c1.59-2.75,3.18-5.49,4.77-8.24c0.25-0.43,0.3-0.95,0.17-1.42c-0.18-0.65-0.74-1.19-1.41-1.32c-0.2-0.04-0.4-0.05-0.6-0.05
			C11.97,5.19,11.91,5.19,11.85,5.19 M36.08,5.13c-0.76,0.01-1.52,0-2.27,0.04c-0.78,0.01-1.55,0.01-2.33,0.02
			c-0.39,0.05-0.78,0.04-1.17,0.04c-0.12,0.01-0.24,0.02-0.35,0.03c-0.86,0.09-1.62,0.6-2.05,1.36c-0.02,0.03-0.04,0.06-0.05,0.09
			c-0.42,0.69-0.78,1.42-1.24,2.08l0,0c-0.11,0.18,0.05,0.41,0.25,0.36c0.33-0.08,0.67-0.14,1.02-0.12l6.88-0.02
			c0.25,0.06,0.44,0.25,0.58,0.46c0.18,0.34,0.15,0.76,0.03,1.11c-0.13,0.31-0.27,0.62-0.52,0.85c-0.45,0.45-1.04,0.76-1.68,0.83
			c-1.39,0.07-2.79,0.04-4.18,0.08c-1.09,0.06-2.18-0.03-3.26,0.12c-0.45,0.09-0.94,0.22-1.25,0.6c-0.23,0.3-0.37,0.66-0.57,0.98
			c-0.44,0.66-0.8,1.37-1.22,2.05c0,0,0,0,0,0c-0.09,0.17,0.06,0.36,0.24,0.3c0.1-0.03,0.2-0.06,0.3-0.07
			c0.21-0.03,0.42-0.06,0.63-0.09c1.6-0.05,3.21-0.06,4.81-0.08c1.54-0.08,3.09,0,4.64-0.1c1.09-0.09,2.16-0.4,3.14-0.87
			c0.62-0.34,1.23-0.72,1.71-1.24c0.31-0.32,0.64-0.64,0.88-1.03c0.35-0.45,0.59-0.97,0.83-1.48c0.2-0.47,0.36-0.95,0.45-1.45
			c0.04-0.36,0.13-0.72,0.09-1.09C40.36,8.39,40.26,7.85,40,7.39c-0.11-0.21-0.21-0.43-0.35-0.62C39.21,6.22,38.66,5.76,38,5.51
			c-0.35-0.11-0.69-0.24-1.05-0.3c-0.26-0.03-0.53-0.07-0.8-0.07C36.13,5.13,36.1,5.13,36.08,5.13"/>
	</defs>
	<clipPath id="SVGID_4_">
		<use xlink:href="#SVGID_3_"  style="overflow:visible;"/>
	</clipPath>
	
		<linearGradient id="SVGID_5_" gradientUnits="userSpaceOnUse" x1="-280.7837" y1="81.9836" x2="-280.6143" y2="81.9836" gradientTransform="matrix(232.6705 0 0 -232.6705 65331.082 19088.1582)">
		<stop  offset="0" style="stop-color:#03B7FF"/>
		<stop  offset="0.9996" style="stop-color:#0D38C1"/>
		<stop  offset="1" style="stop-color:#0D38C1"/>
	</linearGradient>
	<rect x="0.93" y="5.13" class="st6" width="39.52" height="15.74"/>
</g>
</svg>
